External Loads File
version=1
nRows=55
nColumns=13
Range=5.000000e-03-10 seconds
endheader
time 	forceRightX 	forceRightY 	forceRightZ 	pointRightX 	pointRightY 	pointRightZ 	forceLeftX 	forceLeftY 	forceLeftZ 	pointLeftX 	pointLeftY 	pointLeftZ 		
7.505000 54.692864 215.563004 -0.000000 0.262391 0.144410 -0.105858 11.835583 3.633196 -0.000000 0.338059 0.485165 -0.356157
7.510000 57.443511 209.462521 -0.000000 0.253340 0.146945 -0.105871 6.691705 5.416741 -0.000000 0.346163 0.483075 -0.356183
7.515000 59.715290 202.541151 -0.000000 0.244588 0.150132 -0.105878 1.811404 7.380527 -0.000000 0.354041 0.480636 -0.356210
7.520000 61.490328 194.956588 -0.000000 0.236102 0.153613 -0.105962 -2.801242 9.454293 -0.000000 0.361733 0.477594 -0.356260
7.525000 62.630896 186.978645 -0.000000 0.227982 0.157556 -0.106016 -7.165383 11.581462 -0.000000 0.369060 0.474087 -0.356295
7.530000 63.250692 178.840953 -0.000000 0.220246 0.161923 -0.106028 -11.266606 13.761307 -0.000000 0.376156 0.470108 -0.356374
7.535000 63.450242 170.800577 -0.000000 0.212754 0.166632 -0.106078 -15.089894 16.007567 -0.000000 0.382933 0.465681 -0.356429
7.540000 63.256751 163.139914 -0.000000 0.205697 0.171614 -0.106078 -18.674670 18.295719 -0.000000 0.389426 0.460952 -0.356419
7.545000 62.926784 155.991854 -0.000000 0.198859 0.176833 -0.106101 -22.072901 20.643737 -0.000000 0.395635 0.455859 -0.356465
7.550000 62.524570 149.452868 -0.000000 0.192591 0.182520 -0.106085 -25.352996 23.113836 -0.000000 0.401555 0.450400 -0.356476
7.555000 62.077767 143.546965 -0.000000 0.186810 0.188366 -0.106122 -28.580416 25.774988 -0.000000 0.407236 0.444694 -0.356562
7.560000 61.570144 138.276095 -0.000000 0.181504 0.194324 -0.106045 -31.812969 28.651987 -0.000000 0.412573 0.438737 -0.356448
7.565000 61.106573 133.572282 -0.000000 0.176470 0.200514 -0.106028 -35.023172 31.790162 -0.000000 0.417607 0.432492 -0.356535
7.570000 60.593369 129.454831 -0.000000 0.171820 0.206957 -0.106076 -38.148973 35.208595 -0.000000 0.422261 0.426030 -0.356496
7.575000 59.942801 125.951236 -0.000000 0.167633 0.213477 -0.106103 -41.133223 38.898213 -0.000000 0.426502 0.419362 -0.356596
7.580000 59.212460 123.017283 -0.000000 0.163813 0.220144 -0.106140 -43.935549 42.853829 -0.000000 0.430475 0.412537 -0.356573
7.585000 58.403087 120.625118 -0.000000 0.160366 0.227061 -0.106167 -46.552379 47.056415 -0.000000 0.434001 0.405542 -0.356579
7.590000 57.470375 118.762568 -0.000000 0.157375 0.233875 -0.106201 -48.990246 51.478865 -0.000000 0.437334 0.398420 -0.356537
7.595000 56.624586 117.280858 -0.000000 0.154701 0.241011 -0.106225 -51.168460 56.172059 -0.000000 0.440287 0.391127 -0.356513
7.600000 55.878033 116.109476 -0.000000 0.152408 0.248110 -0.106229 -53.134340 61.066795 -0.000000 0.443124 0.383676 -0.356209
7.605000 55.342731 115.116753 -0.000000 0.150396 0.255383 -0.106347 -54.896177 66.110484 -0.000000 0.445484 0.376112 -0.356157
7.610000 55.137482 114.156518 -0.000000 0.148713 0.262808 -0.106378 -56.391779 71.238206 -0.000000 0.447518 0.368405 -0.356196
7.615000 55.292398 113.110046 -0.000000 0.147348 0.270300 -0.106418 -57.564217 76.311145 -0.000000 0.449236 0.360594 -0.356480
7.620000 55.901297 111.806763 -0.000000 0.146219 0.278039 -0.106482 -58.327201 81.206325 -0.000000 0.450755 0.352669 -0.356409
7.625000 56.796015 110.188204 -0.000000 0.145315 0.285805 -0.106607 -58.786871 85.700539 -0.000000 0.451969 0.344730 -0.356324
7.630000 57.985082 108.108487 -0.000000 0.144662 0.293751 -0.106628 -58.886257 89.731276 -0.000000 0.452885 0.336636 -0.356247
7.635000 59.304134 105.529575 -0.000000 0.144408 0.301799 -0.106665 -58.660912 93.210846 -0.000000 0.453544 0.328443 -0.356190
7.640000 60.592295 102.446869 -0.000000 0.144628 0.309957 -0.106730 -58.158210 96.104903 -0.000000 0.453933 0.320262 -0.356118
7.645000 61.736178 98.875938 -0.000000 0.144844 0.318183 -0.107080 -57.396112 98.445363 -0.000000 0.453961 0.312053 -0.356051
7.650000 62.684941 94.852611 -0.000000 0.145757 0.326517 -0.106910 -56.318177 100.305782 -0.000000 0.453745 0.303788 -0.355970
7.655000 63.326598 90.511816 -0.000000 0.146487 0.334769 -0.107136 -54.974624 101.689589 -0.000000 0.453372 0.295575 -0.356367
7.660000 63.782545 85.868948 -0.000000 0.147476 0.343106 -0.107353 -53.278717 102.709267 -0.000000 0.452587 0.287366 -0.355953
7.665000 64.074078 81.010658 -0.000000 0.148798 0.351409 -0.107514 -51.313606 103.420228 -0.000000 0.451482 0.279223 -0.355892
7.670000 64.237233 75.998498 -0.000000 0.150440 0.359643 -0.107645 -49.093746 103.906327 -0.000000 0.450096 0.271196 -0.355810
7.675000 64.309633 70.876231 -0.000000 0.152292 0.367842 -0.107813 -46.529345 104.273694 -0.000000 0.448404 0.263185 -0.355754
7.680000 64.291636 65.738062 -0.000000 0.154232 0.376404 -0.107966 -43.554494 104.619695 -0.000000 0.446453 0.255367 -0.355706
7.685000 64.027408 60.901461 -0.000000 0.156570 0.384349 -0.108105 -40.429134 104.934941 -0.000000 0.444187 0.247645 -0.355653
7.690000 63.588829 56.535050 -0.000000 0.159019 0.392144 -0.108288 -37.125523 105.334538 -0.000000 0.441695 0.240162 -0.355600
7.695000 63.038984 52.823615 -0.000000 0.161691 0.399712 -0.108436 -33.612517 105.906364 -0.000000 0.438842 0.232880 -0.355362
7.700000 62.380644 49.992990 -0.000000 0.164600 0.406907 -0.108559 -29.961857 106.717515 -0.000000 0.435758 0.225847 -0.355314
7.705000 61.646946 48.186393 -0.000000 0.167832 0.413916 -0.108392 -26.179491 107.889732 -0.000000 0.432444 0.219192 -0.355488
7.710000 60.808250 47.582355 -0.000000 0.170947 0.420585 -0.108832 -22.423252 109.514818 -0.000000 0.428881 0.212854 -0.355437
7.715000 59.885955 48.244421 -0.000000 0.174279 0.426655 -0.108641 -18.794296 111.702933 -0.000000 0.425087 0.206888 -0.355426
7.720000 58.924683 50.131865 -0.000000 0.177749 0.432338 -0.109112 -15.411775 114.582192 -0.000000 0.421159 0.201405 -0.355370
7.725000 57.930096 53.163737 -0.000000 0.180872 0.437582 -0.109295 -12.545987 118.286999 -0.000000 0.417108 0.196327 -0.355328
7.730000 57.256160 56.812425 -0.000000 0.185910 0.442463 -0.109119 -9.722172 122.993621 -0.000000 0.412894 0.191665 -0.355312
7.735000 56.489963 61.274867 -0.000000 0.188829 0.446783 -0.109238 -8.114832 128.673582 -0.000000 0.408615 0.187403 -0.355302
7.740000 56.097225 65.794817 -0.000000 0.192476 0.451171 -0.109323 -6.902261 135.464301 -0.000000 0.404382 0.183506 -0.355236
7.745000 55.933690 70.230695 -0.000000 0.196336 0.454736 -0.109705 -6.426401 143.412049 -0.000000 0.400129 0.179917 -0.355187
7.750000 55.942070 74.425460 -0.000000 0.199737 0.458370 -0.109606 -6.639529 152.513475 -0.000000 0.395921 0.176528 -0.355143
7.755000 56.089493 78.320882 -0.000000 0.203257 0.461760 -0.109481 -7.285854 162.650850 -0.000000 0.391711 0.173372 -0.355135
7.760000 56.241208 82.028738 -0.000000 0.206809 0.464798 -0.109510 -8.291174 173.641582 -0.000000 0.387636 0.170330 -0.355067
7.765000 56.299896 85.679781 -0.000000 0.210329 0.467430 -0.109501 -9.588762 185.313331 -0.000000 0.383642 0.167514 -0.355047
7.770000 56.315160 89.325784 -0.000000 0.213758 0.470190 -0.109568 -10.867967 197.492464 -0.000000 0.379657 0.164817 -0.355063
7.775000 56.222664 93.088140 -0.000000 0.217146 0.472816 -0.109630 -12.091983 209.951074 -0.000000 0.375750 0.162374 -0.355002
